<svg id="visual" viewBox="0 0 960 540" width="960" height="540" xmlns="http://www.w3.org/2000/svg" xmlns:xlink="http://www.w3.org/1999/xlink" version="1.1"><rect x="0" y="0" width="960" height="540" fill="#e2ebf0"></rect><defs><linearGradient id="grad1_0" x1="43.8%" y1="100%" x2="100%" y2="0%"><stop offset="14.444444444444446%" stop-color="#e2ebf0" stop-opacity="1"></stop><stop offset="85.55555555555554%" stop-color="#e2ebf0" stop-opacity="1"></stop></linearGradient></defs><defs><linearGradient id="grad2_0" x1="0%" y1="100%" x2="56.3%" y2="0%"><stop offset="14.444444444444446%" stop-color="#e2ebf0" stop-opacity="1"></stop><stop offset="85.55555555555554%" stop-color="#e2ebf0" stop-opacity="1"></stop></linearGradient></defs><g transform="translate(960, 540)"><path d="M-324 0C-306.6 -37.7 -289.1 -75.5 -274.4 -113.7C-259.6 -151.9 -247.5 -190.5 -223.4 -223.4C-199.3 -256.4 -163.2 -283.5 -124 -299.3C-84.7 -315.1 -42.4 -319.6 0 -324L0 0Z" fill="#001122"></path></g><g transform="translate(0, 0)"><path d="M324 0C311.1 38.9 298.2 77.9 284.6 117.9C270.9 157.8 256.4 198.9 229.1 229.1C201.8 259.4 161.6 278.8 121.3 292.9C81 306.9 40.5 315.4 0 324L0 0Z" fill="#001122"></path></g></svg>