<svg id="visual" viewBox="0 0 960 540" width="960" height="540" xmlns="http://www.w3.org/2000/svg" xmlns:xlink="http://www.w3.org/1999/xlink" version="1.1"><rect x="0" y="0" width="960" height="540" fill="#e2ebf0"></rect><path d="M0 209L22.8 199.7C45.7 190.3 91.3 171.7 137 159.3C182.7 147 228.3 141 274 150C319.7 159 365.3 183 411.2 189.2C457 195.3 503 183.7 548.8 174.7C594.7 165.7 640.3 159.3 686 161C731.7 162.7 777.3 172.3 823 179.5C868.7 186.7 914.3 191.3 937.2 193.7L960 196L960 0L937.2 0C914.3 0 868.7 0 823 0C777.3 0 731.7 0 686 0C640.3 0 594.7 0 548.8 0C503 0 457 0 411.2 0C365.3 0 319.7 0 274 0C228.3 0 182.7 0 137 0C91.3 0 45.7 0 22.8 0L0 0Z" fill="#715df2"></path><path d="M0 116L22.8 115.5C45.7 115 91.3 114 137 112.3C182.7 110.7 228.3 108.3 274 116C319.7 123.7 365.3 141.3 411.2 151.3C457 161.3 503 163.7 548.8 159C594.7 154.3 640.3 142.7 686 138.5C731.7 134.3 777.3 137.7 823 136.7C868.7 135.7 914.3 130.3 937.2 127.7L960 125L960 0L937.2 0C914.3 0 868.7 0 823 0C777.3 0 731.7 0 686 0C640.3 0 594.7 0 548.8 0C503 0 457 0 411.2 0C365.3 0 319.7 0 274 0C228.3 0 182.7 0 137 0C91.3 0 45.7 0 22.8 0L0 0Z" fill="#6c50f6"></path><path d="M0 142L22.8 133C45.7 124 91.3 106 137 100.8C182.7 95.7 228.3 103.3 274 112.5C319.7 121.7 365.3 132.3 411.2 137.7C457 143 503 143 548.8 132.8C594.7 122.7 640.3 102.3 686 96.7C731.7 91 777.3 100 823 100.8C868.7 101.7 914.3 94.3 937.2 90.7L960 87L960 0L937.2 0C914.3 0 868.7 0 823 0C777.3 0 731.7 0 686 0C640.3 0 594.7 0 548.8 0C503 0 457 0 411.2 0C365.3 0 319.7 0 274 0C228.3 0 182.7 0 137 0C91.3 0 45.7 0 22.8 0L0 0Z" fill="#6940fa"></path><path d="M0 80L22.8 81.7C45.7 83.3 91.3 86.7 137 84.5C182.7 82.3 228.3 74.7 274 75.2C319.7 75.7 365.3 84.3 411.2 87.7C457 91 503 89 548.8 90.7C594.7 92.3 640.3 97.7 686 97.5C731.7 97.3 777.3 91.7 823 92C868.7 92.3 914.3 98.7 937.2 101.8L960 105L960 0L937.2 0C914.3 0 868.7 0 823 0C777.3 0 731.7 0 686 0C640.3 0 594.7 0 548.8 0C503 0 457 0 411.2 0C365.3 0 319.7 0 274 0C228.3 0 182.7 0 137 0C91.3 0 45.7 0 22.8 0L0 0Z" fill="#672bfd"></path><path d="M0 61L22.8 58.8C45.7 56.7 91.3 52.3 137 46.3C182.7 40.3 228.3 32.7 274 34.5C319.7 36.3 365.3 47.7 411.2 50.5C457 53.3 503 47.7 548.8 47.5C594.7 47.3 640.3 52.7 686 55C731.7 57.3 777.3 56.7 823 51.2C868.7 45.7 914.3 35.3 937.2 30.2L960 25L960 0L937.2 0C914.3 0 868.7 0 823 0C777.3 0 731.7 0 686 0C640.3 0 594.7 0 548.8 0C503 0 457 0 411.2 0C365.3 0 319.7 0 274 0C228.3 0 182.7 0 137 0C91.3 0 45.7 0 22.8 0L0 0Z" fill="#6600ff"></path></svg>