<svg id="visual" viewBox="0 0 1780 1080" width="1780" height="1080" xmlns="http://www.w3.org/2000/svg" xmlns:xlink="http://www.w3.org/1999/xlink" version="1.1"><rect x="0" y="0" width="1780" height="1080" fill="#e2ebf0"></rect><path d="M0 694L29.7 723.3C59.3 752.7 118.7 811.3 178 833.7C237.3 856 296.7 842 356 820C415.3 798 474.7 768 534 771.3C593.3 774.7 652.7 811.3 712 843.7C771.3 876 830.7 904 890 899.3C949.3 894.7 1008.7 857.3 1068 821.7C1127.3 786 1186.7 752 1246 761C1305.3 770 1364.7 822 1424 824C1483.3 826 1542.7 778 1602 757C1661.3 736 1720.7 742 1750.3 745L1780 748L1780 1081L1750.3 1081C1720.7 1081 1661.3 1081 1602 1081C1542.7 1081 1483.3 1081 1424 1081C1364.7 1081 1305.3 1081 1246 1081C1186.7 1081 1127.3 1081 1068 1081C1008.7 1081 949.3 1081 890 1081C830.7 1081 771.3 1081 712 1081C652.7 1081 593.3 1081 534 1081C474.7 1081 415.3 1081 356 1081C296.7 1081 237.3 1081 178 1081C118.7 1081 59.3 1081 29.7 1081L0 1081Z" fill="#6733FC" stroke-linecap="round" stroke-linejoin="miter"></path></svg>