<svg id="visual" viewBox="0 0 960 540" width="960" height="540" xmlns="http://www.w3.org/2000/svg" xmlns:xlink="http://www.w3.org/1999/xlink" version="1.1"><g stroke-width="1" stroke-linejoin="bevel"><path d="M459 292L517 273L504 186Z" fill="#91969f" stroke="#91969f"></path><path d="M504 186L378 188L459 292Z" fill="#001122" stroke="#001122"></path><path d="M378 188L348 235L459 292Z" fill="#2f3948" stroke="#2f3948"></path><path d="M547 393L593 331L517 273Z" fill="#91969f" stroke="#91969f"></path><path d="M517 273L631 228L504 186Z" fill="#abafb6" stroke="#abafb6"></path><path d="M626 304L631 228L517 273Z" fill="#91969f" stroke="#91969f"></path><path d="M348 235L350 338L459 292Z" fill="#91969f" stroke="#91969f"></path><path d="M459 292L547 393L517 273Z" fill="#ffffff" stroke="#ffffff"></path><path d="M480 26L397 92L504 186Z" fill="#ffffff" stroke="#ffffff"></path><path d="M504 186L397 92L378 188Z" fill="#c7c9ce" stroke="#c7c9ce"></path><path d="M378 188L259 147L348 235Z" fill="#182535" stroke="#182535"></path><path d="M593 331L626 304L517 273Z" fill="#001122" stroke="#001122"></path><path d="M449 476L547 393L459 292Z" fill="#464f5d" stroke="#464f5d"></path><path d="M593 331L634 399L626 304Z" fill="#001122" stroke="#001122"></path><path d="M631 228L582 75L504 186Z" fill="#91969f" stroke="#91969f"></path><path d="M200 364L336 391L350 338Z" fill="#777d88" stroke="#777d88"></path><path d="M350 338L449 476L459 292Z" fill="#001122" stroke="#001122"></path><path d="M449 476L569 419L547 393Z" fill="#464f5d" stroke="#464f5d"></path><path d="M547 393L569 419L593 331Z" fill="#ffffff" stroke="#ffffff"></path><path d="M582 75L480 26L504 186Z" fill="#c7c9ce" stroke="#c7c9ce"></path><path d="M569 419L634 399L593 331Z" fill="#91969f" stroke="#91969f"></path><path d="M723 174L676 117L631 228Z" fill="#c7c9ce" stroke="#c7c9ce"></path><path d="M397 92L259 147L378 188Z" fill="#2f3948" stroke="#2f3948"></path><path d="M348 235L209 289L350 338Z" fill="#777d88" stroke="#777d88"></path><path d="M238 140L259 147L211 71Z" fill="#ffffff" stroke="#ffffff"></path><path d="M259 147L239 213L348 235Z" fill="#777d88" stroke="#777d88"></path><path d="M200 364L328 420L336 391Z" fill="#abafb6" stroke="#abafb6"></path><path d="M336 391L449 476L350 338Z" fill="#777d88" stroke="#777d88"></path><path d="M631 228L676 117L582 75Z" fill="#c7c9ce" stroke="#c7c9ce"></path><path d="M520 0L450 0L480 26Z" fill="#182535" stroke="#182535"></path><path d="M711 310L631 228L626 304Z" fill="#91969f" stroke="#91969f"></path><path d="M520 0L480 26L582 75Z" fill="#182535" stroke="#182535"></path><path d="M480 26L450 0L397 92Z" fill="#464f5d" stroke="#464f5d"></path><path d="M684 0L520 0L582 75Z" fill="#777d88" stroke="#777d88"></path><path d="M328 420L449 476L336 391Z" fill="#abafb6" stroke="#abafb6"></path><path d="M569 419L598 540L634 399Z" fill="#464f5d" stroke="#464f5d"></path><path d="M706 336L711 310L626 304Z" fill="#c7c9ce" stroke="#c7c9ce"></path><path d="M259 147L238 140L239 213Z" fill="#ffffff" stroke="#ffffff"></path><path d="M327 0L259 147L397 92Z" fill="#abafb6" stroke="#abafb6"></path><path d="M634 399L706 336L626 304Z" fill="#464f5d" stroke="#464f5d"></path><path d="M744 205L723 174L631 228Z" fill="#777d88" stroke="#777d88"></path><path d="M130 234L209 289L239 213Z" fill="#2f3948" stroke="#2f3948"></path><path d="M239 213L209 289L348 235Z" fill="#ffffff" stroke="#ffffff"></path><path d="M711 310L744 205L631 228Z" fill="#001122" stroke="#001122"></path><path d="M788 211L744 205L711 310Z" fill="#2f3948" stroke="#2f3948"></path><path d="M450 0L327 0L397 92Z" fill="#e2e4e6" stroke="#e2e4e6"></path><path d="M260 501L316 470L328 420Z" fill="#2f3948" stroke="#2f3948"></path><path d="M328 420L316 470L449 476Z" fill="#e2e4e6" stroke="#e2e4e6"></path><path d="M209 289L200 364L350 338Z" fill="#777d88" stroke="#777d88"></path><path d="M264 0L211 71L259 147Z" fill="#91969f" stroke="#91969f"></path><path d="M238 140L130 234L239 213Z" fill="#777d88" stroke="#777d88"></path><path d="M209 289L122 319L200 364Z" fill="#c7c9ce" stroke="#c7c9ce"></path><path d="M408 540L531 540L449 476Z" fill="#464f5d" stroke="#464f5d"></path><path d="M449 476L531 540L569 419Z" fill="#5e6572" stroke="#5e6572"></path><path d="M634 399L809 379L706 336Z" fill="#e2e4e6" stroke="#e2e4e6"></path><path d="M316 470L408 540L449 476Z" fill="#ffffff" stroke="#ffffff"></path><path d="M327 0L264 0L259 147Z" fill="#464f5d" stroke="#464f5d"></path><path d="M817 60L713 30L676 117Z" fill="#464f5d" stroke="#464f5d"></path><path d="M676 117L684 0L582 75Z" fill="#777d88" stroke="#777d88"></path><path d="M817 60L676 117L723 174Z" fill="#182535" stroke="#182535"></path><path d="M713 30L684 0L676 117Z" fill="#ffffff" stroke="#ffffff"></path><path d="M809 379L788 211L711 310Z" fill="#e2e4e6" stroke="#e2e4e6"></path><path d="M744 205L788 211L723 174Z" fill="#777d88" stroke="#777d88"></path><path d="M264 0L249 0L211 71Z" fill="#2f3948" stroke="#2f3948"></path><path d="M531 540L598 540L569 419Z" fill="#e2e4e6" stroke="#e2e4e6"></path><path d="M880 285L830 188L788 211Z" fill="#91969f" stroke="#91969f"></path><path d="M200 364L260 501L328 420Z" fill="#c7c9ce" stroke="#c7c9ce"></path><path d="M316 470L263 540L408 540Z" fill="#464f5d" stroke="#464f5d"></path><path d="M817 60L721 0L713 30Z" fill="#2f3948" stroke="#2f3948"></path><path d="M713 30L721 0L684 0Z" fill="#2f3948" stroke="#2f3948"></path><path d="M211 71L130 234L238 140Z" fill="#777d88" stroke="#777d88"></path><path d="M133 402L256 505L260 501Z" fill="#001122" stroke="#001122"></path><path d="M133 402L260 501L200 364Z" fill="#777d88" stroke="#777d88"></path><path d="M260 501L263 540L316 470Z" fill="#464f5d" stroke="#464f5d"></path><path d="M130 234L122 319L209 289Z" fill="#91969f" stroke="#91969f"></path><path d="M809 379L711 310L706 336Z" fill="#001122" stroke="#001122"></path><path d="M788 211L830 188L723 174Z" fill="#abafb6" stroke="#abafb6"></path><path d="M808 489L809 379L634 399Z" fill="#777d88" stroke="#777d88"></path><path d="M124 540L263 540L256 505Z" fill="#5e6572" stroke="#5e6572"></path><path d="M256 505L263 540L260 501Z" fill="#182535" stroke="#182535"></path><path d="M122 319L133 402L200 364Z" fill="#2f3948" stroke="#2f3948"></path><path d="M830 188L817 60L723 174Z" fill="#464f5d" stroke="#464f5d"></path><path d="M598 540L714 540L634 399Z" fill="#777d88" stroke="#777d88"></path><path d="M809 379L880 285L788 211Z" fill="#182535" stroke="#182535"></path><path d="M960 71L854 0L817 60Z" fill="#001122" stroke="#001122"></path><path d="M960 287L880 285L960 346Z" fill="#5e6572" stroke="#5e6572"></path><path d="M714 540L808 489L634 399Z" fill="#ffffff" stroke="#ffffff"></path><path d="M47 82L44 227L130 234Z" fill="#c7c9ce" stroke="#c7c9ce"></path><path d="M130 234L44 227L122 319Z" fill="#777d88" stroke="#777d88"></path><path d="M122 319L0 419L133 402Z" fill="#91969f" stroke="#91969f"></path><path d="M47 82L130 234L211 71Z" fill="#182535" stroke="#182535"></path><path d="M714 540L778 540L808 489Z" fill="#777d88" stroke="#777d88"></path><path d="M960 124L817 60L830 188Z" fill="#182535" stroke="#182535"></path><path d="M817 60L854 0L721 0Z" fill="#5e6572" stroke="#5e6572"></path><path d="M778 540L832 507L808 489Z" fill="#91969f" stroke="#91969f"></path><path d="M808 489L832 507L809 379Z" fill="#ffffff" stroke="#ffffff"></path><path d="M82 0L47 82L211 71Z" fill="#464f5d" stroke="#464f5d"></path><path d="M249 0L82 0L211 71Z" fill="#e2e4e6" stroke="#e2e4e6"></path><path d="M133 402L124 540L256 505Z" fill="#abafb6" stroke="#abafb6"></path><path d="M115 540L124 540L133 402Z" fill="#5e6572" stroke="#5e6572"></path><path d="M0 503L115 540L133 402Z" fill="#2f3948" stroke="#2f3948"></path><path d="M778 540L833 540L832 507Z" fill="#91969f" stroke="#91969f"></path><path d="M960 346L880 285L809 379Z" fill="#182535" stroke="#182535"></path><path d="M0 219L0 246L44 227Z" fill="#777d88" stroke="#777d88"></path><path d="M44 227L0 246L122 319Z" fill="#464f5d" stroke="#464f5d"></path><path d="M0 95L0 219L44 227Z" fill="#001122" stroke="#001122"></path><path d="M960 346L809 379L960 443Z" fill="#c7c9ce" stroke="#c7c9ce"></path><path d="M880 285L960 124L830 188Z" fill="#464f5d" stroke="#464f5d"></path><path d="M0 0L0 95L47 82Z" fill="#777d88" stroke="#777d88"></path><path d="M47 82L0 95L44 227Z" fill="#c7c9ce" stroke="#c7c9ce"></path><path d="M960 443L809 379L832 507Z" fill="#464f5d" stroke="#464f5d"></path><path d="M960 287L960 124L880 285Z" fill="#ffffff" stroke="#ffffff"></path><path d="M0 246L0 419L122 319Z" fill="#2f3948" stroke="#2f3948"></path><path d="M960 124L960 71L817 60Z" fill="#777d88" stroke="#777d88"></path><path d="M82 0L0 0L47 82Z" fill="#182535" stroke="#182535"></path><path d="M960 540L960 443L832 507Z" fill="#464f5d" stroke="#464f5d"></path><path d="M960 71L960 0L854 0Z" fill="#2f3948" stroke="#2f3948"></path><path d="M0 419L0 503L133 402Z" fill="#e2e4e6" stroke="#e2e4e6"></path><path d="M0 503L0 540L115 540Z" fill="#ffffff" stroke="#ffffff"></path><path d="M833 540L960 540L832 507Z" fill="#182535" stroke="#182535"></path></g></svg>