<svg id="visual" viewBox="0 0 1920 1080" width="1920" height="1080" xmlns="http://www.w3.org/2000/svg" xmlns:xlink="http://www.w3.org/1999/xlink" version="1.1"><rect x="0" y="0" width="1920" height="1080" fill="#103f62"></rect><defs><linearGradient id="grad1_0" x1="43.8%" y1="0%" x2="100%" y2="100%"><stop offset="14.444444444444446%" stop-color="#5fc9d3" stop-opacity="1"></stop><stop offset="85.55555555555554%" stop-color="#5fc9d3" stop-opacity="1"></stop></linearGradient></defs><defs><linearGradient id="grad1_1" x1="43.8%" y1="0%" x2="100%" y2="100%"><stop offset="14.444444444444446%" stop-color="#5fc9d3" stop-opacity="1"></stop><stop offset="85.55555555555554%" stop-color="#103f62" stop-opacity="1"></stop></linearGradient></defs><defs><linearGradient id="grad2_0" x1="0%" y1="0%" x2="56.3%" y2="100%"><stop offset="14.444444444444446%" stop-color="#5fc9d3" stop-opacity="1"></stop><stop offset="85.55555555555554%" stop-color="#5fc9d3" stop-opacity="1"></stop></linearGradient></defs><defs><linearGradient id="grad2_1" x1="0%" y1="0%" x2="56.3%" y2="100%"><stop offset="14.444444444444446%" stop-color="#103f62" stop-opacity="1"></stop><stop offset="85.55555555555554%" stop-color="#5fc9d3" stop-opacity="1"></stop></linearGradient></defs><g transform="translate(1920, 0)"><path d="M0 918C-160.7 894.1 -321.4 870.1 -459 795C-596.6 719.9 -711.1 593.5 -783.8 452.5C-856.4 311.5 -887.2 155.7 -918 0L0 0Z" fill="#29819f"></path><path d="M0 459C-80.3 447 -160.7 435.1 -229.5 397.5C-298.3 359.9 -355.6 296.8 -391.9 226.3C-428.2 155.7 -443.6 77.9 -459 0L0 0Z" fill="#5fc9d3"></path></g><g transform="translate(0, 1080)"><path d="M0 -918C108.3 -805 216.5 -692 363.5 -629.6C510.5 -567.2 696.1 -555.5 795 -459C893.9 -362.5 905.9 -181.3 918 0L0 0Z" fill="#29819f"></path><path d="M0 -459C54.1 -402.5 108.3 -346 181.7 -314.8C255.2 -283.6 348.1 -277.7 397.5 -229.5C446.9 -181.3 453 -90.6 459 0L0 0Z" fill="#5fc9d3"></path></g></svg>