<svg id="visual" viewBox="0 0 1920 1020" width="1920" height="1020" xmlns="http://www.w3.org/2000/svg" xmlns:xlink="http://www.w3.org/1999/xlink" version="1.1"><rect x="0" y="0" width="1920" height="1020" fill="#FCAF3C"></rect><path d="M0 510L32 479.8C64 449.7 128 389.3 192 346.5C256 303.7 320 278.3 384 266.7C448 255 512 257 576 323.5C640 390 704 521 768 576.5C832 632 896 612 960 578.3C1024 544.7 1088 497.3 1152 524.7C1216 552 1280 654 1344 682.7C1408 711.3 1472 666.7 1536 629.5C1600 592.3 1664 562.7 1728 496.8C1792 431 1856 329 1888 278L1920 227L1920 1021L1888 1021C1856 1021 1792 1021 1728 1021C1664 1021 1600 1021 1536 1021C1472 1021 1408 1021 1344 1021C1280 1021 1216 1021 1152 1021C1088 1021 1024 1021 960 1021C896 1021 832 1021 768 1021C704 1021 640 1021 576 1021C512 1021 448 1021 384 1021C320 1021 256 1021 192 1021C128 1021 64 1021 32 1021L0 1021Z" fill="#FFFFFF" stroke-linecap="round" stroke-linejoin="miter"></path></svg>