<svg id="visual" viewBox="0 0 1920 100" width="1920" height="100" xmlns="http://www.w3.org/2000/svg" xmlns:xlink="http://www.w3.org/1999/xlink" version="1.1"><path d="M0 10L13.8 10.2C27.7 10.3 55.3 10.7 83.2 10.3C111 10 139 9 166.8 8.3C194.7 7.7 222.3 7.3 250.2 6.5C278 5.7 306 4.3 333.8 5.2C361.7 6 389.3 9 417.2 9.3C445 9.7 473 7.3 500.8 7C528.7 6.7 556.3 8.3 584.2 9C612 9.7 640 9.3 667.8 9.8C695.7 10.3 723.3 11.7 751.2 11.3C779 11 807 9 834.8 8C862.7 7 890.3 7 918.2 6.2C946 5.3 974 3.7 1001.8 2.5C1029.7 1.3 1057.3 0.7 1085.2 1.7C1113 2.7 1141 5.3 1168.8 5.7C1196.7 6 1224.3 4 1252.2 2.7C1280 1.3 1308 0.7 1335.8 2C1363.7 3.3 1391.3 6.7 1419.2 7C1447 7.3 1475 4.7 1502.8 3.8C1530.7 3 1558.3 4 1586.2 4.3C1614 4.7 1642 4.3 1669.8 4.3C1697.7 4.3 1725.3 4.7 1753.2 6C1781 7.3 1809 9.7 1836.8 8.8C1864.7 8 1892.3 4 1906.2 2L1920 0L1920 0L1906.2 0C1892.3 0 1864.7 0 1836.8 0C1809 0 1781 0 1753.2 0C1725.3 0 1697.7 0 1669.8 0C1642 0 1614 0 1586.2 0C1558.3 0 1530.7 0 1502.8 0C1475 0 1447 0 1419.2 0C1391.3 0 1363.7 0 1335.8 0C1308 0 1280 0 1252.2 0C1224.3 0 1196.7 0 1168.8 0C1141 0 1113 0 1085.2 0C1057.3 0 1029.7 0 1001.8 0C974 0 946 0 918.2 0C890.3 0 862.7 0 834.8 0C807 0 779 0 751.2 0C723.3 0 695.7 0 667.8 0C640 0 612 0 584.2 0C556.3 0 528.7 0 500.8 0C473 0 445 0 417.2 0C389.3 0 361.7 0 333.8 0C306 0 278 0 250.2 0C222.3 0 194.7 0 166.8 0C139 0 111 0 83.2 0C55.3 0 27.7 0 13.8 0L0 0Z" fill="#fcaf3c"></path><path d="M0 14L13.8 16.5C27.7 19 55.3 24 83.2 24.3C111 24.7 139 20.3 166.8 18.3C194.7 16.3 222.3 16.7 250.2 16.8C278 17 306 17 333.8 17.2C361.7 17.3 389.3 17.7 417.2 17C445 16.3 473 14.7 500.8 14.3C528.7 14 556.3 15 584.2 17.3C612 19.7 640 23.3 667.8 25.2C695.7 27 723.3 27 751.2 27.7C779 28.3 807 29.7 834.8 29.5C862.7 29.3 890.3 27.7 918.2 26.7C946 25.7 974 25.3 1001.8 21C1029.7 16.7 1057.3 8.3 1085.2 8.7C1113 9 1141 18 1168.8 23.2C1196.7 28.3 1224.3 29.7 1252.2 28C1280 26.3 1308 21.7 1335.8 19.5C1363.7 17.3 1391.3 17.7 1419.2 18.8C1447 20 1475 22 1502.8 22.3C1530.7 22.7 1558.3 21.3 1586.2 19.5C1614 17.7 1642 15.3 1669.8 13C1697.7 10.7 1725.3 8.3 1753.2 8.2C1781 8 1809 10 1836.8 11.7C1864.7 13.3 1892.3 14.7 1906.2 15.3L1920 16L1920 0L1906.2 1.7C1892.3 3.3 1864.7 6.7 1836.8 7.2C1809 7.7 1781 5.3 1753.2 4C1725.3 2.7 1697.7 2.3 1669.8 2.3C1642 2.3 1614 2.7 1586.2 2.3C1558.3 2 1530.7 1 1502.8 1.8C1475 2.7 1447 5.3 1419.2 5.3C1391.3 5.3 1363.7 2.7 1335.8 1.3C1308 0 1280 0 1252.2 1C1224.3 2 1196.7 4 1168.8 4C1141 4 1113 2 1085.2 1C1057.3 0 1029.7 0 1001.8 0.8C974 1.7 946 3.3 918.2 4.2C890.3 5 862.7 5 834.8 6C807 7 779 9 751.2 9.3C723.3 9.7 695.7 8.3 667.8 7.8C640 7.3 612 7.7 584.2 7C556.3 6.3 528.7 4.7 500.8 5C473 5.3 445 7.7 417.2 7.3C389.3 7 361.7 4 333.8 3.2C306 2.3 278 3.7 250.2 4.5C222.3 5.3 194.7 5.7 166.8 6.3C139 7 111 8 83.2 8.3C55.3 8.7 27.7 8.3 13.8 8.2L0 8Z" fill="#fdb650"></path><path d="M0 21L13.8 23.7C27.7 26.3 55.3 31.7 83.2 32C111 32.3 139 27.7 166.8 24.7C194.7 21.7 222.3 20.3 250.2 20.8C278 21.3 306 23.7 333.8 23.7C361.7 23.7 389.3 21.3 417.2 19.8C445 18.3 473 17.7 500.8 18.2C528.7 18.7 556.3 20.3 584.2 23.2C612 26 640 30 667.8 30.8C695.7 31.7 723.3 29.3 751.2 29.2C779 29 807 31 834.8 31.5C862.7 32 890.3 31 918.2 30C946 29 974 28 1001.8 23.5C1029.7 19 1057.3 11 1085.2 11.8C1113 12.7 1141 22.3 1168.8 27.5C1196.7 32.7 1224.3 33.3 1252.2 31.7C1280 30 1308 26 1335.8 24.3C1363.7 22.7 1391.3 23.3 1419.2 25C1447 26.7 1475 29.3 1502.8 29C1530.7 28.7 1558.3 25.3 1586.2 22.2C1614 19 1642 16 1669.8 13.3C1697.7 10.7 1725.3 8.3 1753.2 9.5C1781 10.7 1809 15.3 1836.8 17.7C1864.7 20 1892.3 20 1906.2 20L1920 20L1920 14L1906.2 13.3C1892.3 12.7 1864.7 11.3 1836.8 9.7C1809 8 1781 6 1753.2 6.2C1725.3 6.3 1697.7 8.7 1669.8 11C1642 13.3 1614 15.7 1586.2 17.5C1558.3 19.3 1530.7 20.7 1502.8 20.3C1475 20 1447 18 1419.2 16.8C1391.3 15.7 1363.7 15.3 1335.8 17.5C1308 19.7 1280 24.3 1252.2 26C1224.3 27.7 1196.7 26.3 1168.8 21.5C1141 16.7 1113 8.3 1085.2 8C1057.3 7.7 1029.7 15.3 1001.8 19.3C974 23.3 946 23.7 918.2 24.7C890.3 25.7 862.7 27.3 834.8 27.5C807 27.7 779 26.3 751.2 25.7C723.3 25 695.7 25 667.8 23.2C640 21.3 612 17.7 584.2 15.3C556.3 13 528.7 12 500.8 12.3C473 12.7 445 14.3 417.2 15C389.3 15.7 361.7 15.3 333.8 15.2C306 15 278 15 250.2 14.8C222.3 14.7 194.7 14.3 166.8 16.3C139 18.3 111 22.7 83.2 22.3C55.3 22 27.7 17 13.8 14.5L0 12Z" fill="#febd62"></path><path d="M0 22L13.8 25.2C27.7 28.3 55.3 34.7 83.2 36C111 37.3 139 33.7 166.8 31.3C194.7 29 222.3 28 250.2 28.5C278 29 306 31 333.8 30.7C361.7 30.3 389.3 27.7 417.2 25.5C445 23.3 473 21.7 500.8 22.7C528.7 23.7 556.3 27.3 584.2 31.3C612 35.3 640 39.7 667.8 39C695.7 38.3 723.3 32.7 751.2 32.3C779 32 807 37 834.8 38.8C862.7 40.7 890.3 39.3 918.2 38.2C946 37 974 36 1001.8 31.7C1029.7 27.3 1057.3 19.7 1085.2 20.3C1113 21 1141 30 1168.8 34.3C1196.7 38.7 1224.3 38.3 1252.2 36.8C1280 35.3 1308 32.7 1335.8 30.3C1363.7 28 1391.3 26 1419.2 28.2C1447 30.3 1475 36.7 1502.8 38.2C1530.7 39.7 1558.3 36.3 1586.2 32C1614 27.7 1642 22.3 1669.8 17.8C1697.7 13.3 1725.3 9.7 1753.2 10.2C1781 10.7 1809 15.3 1836.8 17.8C1864.7 20.3 1892.3 20.7 1906.2 20.8L1920 21L1920 18L1906.2 18C1892.3 18 1864.7 18 1836.8 15.7C1809 13.3 1781 8.7 1753.2 7.5C1725.3 6.3 1697.7 8.7 1669.8 11.3C1642 14 1614 17 1586.2 20.2C1558.3 23.3 1530.7 26.7 1502.8 27C1475 27.3 1447 24.7 1419.2 23C1391.3 21.3 1363.7 20.7 1335.8 22.3C1308 24 1280 28 1252.2 29.7C1224.3 31.3 1196.7 30.7 1168.8 25.5C1141 20.3 1113 10.7 1085.2 9.8C1057.3 9 1029.7 17 1001.8 21.5C974 26 946 27 918.2 28C890.3 29 862.7 30 834.8 29.5C807 29 779 27 751.2 27.2C723.3 27.3 695.7 29.7 667.8 28.8C640 28 612 24 584.2 21.2C556.3 18.3 528.7 16.7 500.8 16.2C473 15.7 445 16.3 417.2 17.8C389.3 19.3 361.7 21.7 333.8 21.7C306 21.7 278 19.3 250.2 18.8C222.3 18.3 194.7 19.7 166.8 22.7C139 25.7 111 30.3 83.2 30C55.3 29.7 27.7 24.3 13.8 21.7L0 19Z" fill="#ffc474"></path><path d="M0 42L13.8 44.5C27.7 47 55.3 52 83.2 51.8C111 51.7 139 46.3 166.8 45.7C194.7 45 222.3 49 250.2 49C278 49 306 45 333.8 42C361.7 39 389.3 37 417.2 38.7C445 40.3 473 45.7 500.8 47C528.7 48.3 556.3 45.7 584.2 48C612 50.3 640 57.7 667.8 60.3C695.7 63 723.3 61 751.2 58.8C779 56.7 807 54.3 834.8 53.5C862.7 52.7 890.3 53.3 918.2 53.5C946 53.7 974 53.3 1001.8 50.7C1029.7 48 1057.3 43 1085.2 45C1113 47 1141 56 1168.8 58.2C1196.7 60.3 1224.3 55.7 1252.2 52.2C1280 48.7 1308 46.3 1335.8 46.2C1363.7 46 1391.3 48 1419.2 51.8C1447 55.7 1475 61.3 1502.8 59.5C1530.7 57.7 1558.3 48.3 1586.2 44.5C1614 40.7 1642 42.3 1669.8 42.5C1697.7 42.7 1725.3 41.3 1753.2 40.8C1781 40.3 1809 40.7 1836.8 40C1864.7 39.3 1892.3 37.7 1906.2 36.8L1920 36L1920 19L1906.2 18.8C1892.3 18.7 1864.7 18.3 1836.8 15.8C1809 13.3 1781 8.7 1753.2 8.2C1725.3 7.7 1697.7 11.3 1669.8 15.8C1642 20.3 1614 25.7 1586.2 30C1558.3 34.3 1530.7 37.7 1502.8 36.2C1475 34.7 1447 28.3 1419.2 26.2C1391.3 24 1363.7 26 1335.8 28.3C1308 30.7 1280 33.3 1252.2 34.8C1224.3 36.3 1196.7 36.7 1168.8 32.3C1141 28 1113 19 1085.2 18.3C1057.3 17.7 1029.7 25.3 1001.8 29.7C974 34 946 35 918.2 36.2C890.3 37.3 862.7 38.7 834.8 36.8C807 35 779 30 751.2 30.3C723.3 30.7 695.7 36.3 667.8 37C640 37.7 612 33.3 584.2 29.3C556.3 25.3 528.7 21.7 500.8 20.7C473 19.7 445 21.3 417.2 23.5C389.3 25.7 361.7 28.3 333.8 28.7C306 29 278 27 250.2 26.5C222.3 26 194.7 27 166.8 29.3C139 31.7 111 35.3 83.2 34C55.3 32.7 27.7 26.3 13.8 23.2L0 20Z" fill="#ffcc85"></path><path d="M0 50L13.8 52.3C27.7 54.7 55.3 59.3 83.2 58.8C111 58.3 139 52.7 166.8 52.3C194.7 52 222.3 57 250.2 56.3C278 55.7 306 49.3 333.8 45.5C361.7 41.7 389.3 40.3 417.2 42.5C445 44.7 473 50.3 500.8 51.7C528.7 53 556.3 50 584.2 52.2C612 54.3 640 61.7 667.8 63.7C695.7 65.7 723.3 62.3 751.2 60.3C779 58.3 807 57.7 834.8 56.8C862.7 56 890.3 55 918.2 55.3C946 55.7 974 57.3 1001.8 56C1029.7 54.7 1057.3 50.3 1085.2 51.5C1113 52.7 1141 59.3 1168.8 61.3C1196.7 63.3 1224.3 60.7 1252.2 58.3C1280 56 1308 54 1335.8 52.7C1363.7 51.3 1391.3 50.7 1419.2 53.8C1447 57 1475 64 1502.8 63C1530.7 62 1558.3 53 1586.2 49.3C1614 45.7 1642 47.3 1669.8 47.3C1697.7 47.3 1725.3 45.7 1753.2 45.3C1781 45 1809 46 1836.8 45.7C1864.7 45.3 1892.3 43.7 1906.2 42.8L1920 42L1920 34L1906.2 34.8C1892.3 35.7 1864.7 37.3 1836.8 38C1809 38.7 1781 38.3 1753.2 38.8C1725.3 39.3 1697.7 40.7 1669.8 40.5C1642 40.3 1614 38.7 1586.2 42.5C1558.3 46.3 1530.7 55.7 1502.8 57.5C1475 59.3 1447 53.7 1419.2 49.8C1391.3 46 1363.7 44 1335.8 44.2C1308 44.3 1280 46.7 1252.2 50.2C1224.3 53.7 1196.7 58.3 1168.8 56.2C1141 54 1113 45 1085.2 43C1057.3 41 1029.7 46 1001.8 48.7C974 51.3 946 51.7 918.2 51.5C890.3 51.3 862.7 50.7 834.8 51.5C807 52.3 779 54.7 751.2 56.8C723.3 59 695.7 61 667.8 58.3C640 55.7 612 48.3 584.2 46C556.3 43.7 528.7 46.3 500.8 45C473 43.7 445 38.3 417.2 36.7C389.3 35 361.7 37 333.8 40C306 43 278 47 250.2 47C222.3 47 194.7 43 166.8 43.7C139 44.3 111 49.7 83.2 49.8C55.3 50 27.7 45 13.8 42.5L0 40Z" fill="#ffd396"></path><path d="M0 64L13.8 65.3C27.7 66.7 55.3 69.3 83.2 67.8C111 66.3 139 60.7 166.8 60.2C194.7 59.7 222.3 64.3 250.2 65.2C278 66 306 63 333.8 60.3C361.7 57.7 389.3 55.3 417.2 55.2C445 55 473 57 500.8 56.7C528.7 56.3 556.3 53.7 584.2 57.5C612 61.3 640 71.7 667.8 73.2C695.7 74.7 723.3 67.3 751.2 65.5C779 63.7 807 67.3 834.8 67.2C862.7 67 890.3 63 918.2 61.8C946 60.7 974 62.3 1001.8 62.5C1029.7 62.7 1057.3 61.3 1085.2 62.5C1113 63.7 1141 67.3 1168.8 68.3C1196.7 69.3 1224.3 67.7 1252.2 66.2C1280 64.7 1308 63.3 1335.8 63.7C1363.7 64 1391.3 66 1419.2 69.2C1447 72.3 1475 76.7 1502.8 74C1530.7 71.3 1558.3 61.7 1586.2 58.5C1614 55.3 1642 58.7 1669.8 58.7C1697.7 58.7 1725.3 55.3 1753.2 53.8C1781 52.3 1809 52.7 1836.8 53.5C1864.7 54.3 1892.3 55.7 1906.2 56.3L1920 57L1920 40L1906.2 40.8C1892.3 41.7 1864.7 43.3 1836.8 43.7C1809 44 1781 43 1753.2 43.3C1725.3 43.7 1697.7 45.3 1669.8 45.3C1642 45.3 1614 43.7 1586.2 47.3C1558.3 51 1530.7 60 1502.8 61C1475 62 1447 55 1419.2 51.8C1391.3 48.7 1363.7 49.3 1335.8 50.7C1308 52 1280 54 1252.2 56.3C1224.3 58.7 1196.7 61.3 1168.8 59.3C1141 57.3 1113 50.7 1085.2 49.5C1057.3 48.3 1029.7 52.7 1001.8 54C974 55.3 946 53.7 918.2 53.3C890.3 53 862.7 54 834.8 54.8C807 55.7 779 56.3 751.2 58.3C723.3 60.3 695.7 63.7 667.8 61.7C640 59.7 612 52.3 584.2 50.2C556.3 48 528.7 51 500.8 49.7C473 48.3 445 42.7 417.2 40.5C389.3 38.3 361.7 39.7 333.8 43.5C306 47.3 278 53.7 250.2 54.3C222.3 55 194.7 50 166.8 50.3C139 50.7 111 56.3 83.2 56.8C55.3 57.3 27.7 52.7 13.8 50.3L0 48Z" fill="#ffdaa8"></path><path d="M0 68L13.8 69.5C27.7 71 55.3 74 83.2 72C111 70 139 63 166.8 61.7C194.7 60.3 222.3 64.7 250.2 65.5C278 66.3 306 63.7 333.8 62.3C361.7 61 389.3 61 417.2 60.7C445 60.3 473 59.7 500.8 59.3C528.7 59 556.3 59 584.2 63.7C612 68.3 640 77.7 667.8 79C695.7 80.3 723.3 73.7 751.2 72.2C779 70.7 807 74.3 834.8 74.2C862.7 74 890.3 70 918.2 68.3C946 66.7 974 67.3 1001.8 67C1029.7 66.7 1057.3 65.3 1085.2 66.7C1113 68 1141 72 1168.8 73.5C1196.7 75 1224.3 74 1252.2 72.7C1280 71.3 1308 69.7 1335.8 69.7C1363.7 69.7 1391.3 71.3 1419.2 73.8C1447 76.3 1475 79.7 1502.8 77.5C1530.7 75.3 1558.3 67.7 1586.2 65C1614 62.3 1642 64.7 1669.8 64.7C1697.7 64.7 1725.3 62.3 1753.2 60.7C1781 59 1809 58 1836.8 58.7C1864.7 59.3 1892.3 61.7 1906.2 62.8L1920 64L1920 55L1906.2 54.3C1892.3 53.7 1864.7 52.3 1836.8 51.5C1809 50.7 1781 50.3 1753.2 51.8C1725.3 53.3 1697.7 56.7 1669.8 56.7C1642 56.7 1614 53.3 1586.2 56.5C1558.3 59.7 1530.7 69.3 1502.8 72C1475 74.7 1447 70.3 1419.2 67.2C1391.3 64 1363.7 62 1335.8 61.7C1308 61.3 1280 62.7 1252.2 64.2C1224.3 65.7 1196.7 67.3 1168.8 66.3C1141 65.3 1113 61.7 1085.2 60.5C1057.3 59.3 1029.7 60.7 1001.8 60.5C974 60.3 946 58.7 918.2 59.8C890.3 61 862.7 65 834.8 65.2C807 65.3 779 61.7 751.2 63.5C723.3 65.3 695.7 72.7 667.8 71.2C640 69.7 612 59.3 584.2 55.5C556.3 51.7 528.7 54.3 500.8 54.7C473 55 445 53 417.2 53.2C389.3 53.3 361.7 55.7 333.8 58.3C306 61 278 64 250.2 63.2C222.3 62.3 194.7 57.7 166.8 58.2C139 58.7 111 64.3 83.2 65.8C55.3 67.3 27.7 64.7 13.8 63.3L0 62Z" fill="#ffe1b9"></path><path d="M0 77L13.8 77.7C27.7 78.3 55.3 79.7 83.2 79.8C111 80 139 79 166.8 77.3C194.7 75.7 222.3 73.3 250.2 75C278 76.7 306 82.3 333.8 83.8C361.7 85.3 389.3 82.7 417.2 81.5C445 80.3 473 80.7 500.8 81.8C528.7 83 556.3 85 584.2 86C612 87 640 87 667.8 84.5C695.7 82 723.3 77 751.2 78.5C779 80 807 88 834.8 88.8C862.7 89.7 890.3 83.3 918.2 80.7C946 78 974 79 1001.8 80.2C1029.7 81.3 1057.3 82.7 1085.2 83C1113 83.3 1141 82.7 1168.8 83.8C1196.7 85 1224.3 88 1252.2 87.5C1280 87 1308 83 1335.8 81C1363.7 79 1391.3 79 1419.2 80.5C1447 82 1475 85 1502.8 85.8C1530.7 86.7 1558.3 85.3 1586.2 82.8C1614 80.3 1642 76.7 1669.8 75.7C1697.7 74.7 1725.3 76.3 1753.2 77.5C1781 78.7 1809 79.3 1836.8 81.2C1864.7 83 1892.3 86 1906.2 87.5L1920 89L1920 62L1906.2 60.8C1892.3 59.7 1864.7 57.3 1836.8 56.7C1809 56 1781 57 1753.2 58.7C1725.3 60.3 1697.7 62.7 1669.8 62.7C1642 62.7 1614 60.3 1586.2 63C1558.3 65.7 1530.7 73.3 1502.8 75.5C1475 77.7 1447 74.3 1419.2 71.8C1391.3 69.3 1363.7 67.7 1335.8 67.7C1308 67.7 1280 69.3 1252.2 70.7C1224.3 72 1196.7 73 1168.8 71.5C1141 70 1113 66 1085.2 64.7C1057.3 63.3 1029.7 64.7 1001.8 65C974 65.3 946 64.7 918.2 66.3C890.3 68 862.7 72 834.8 72.2C807 72.3 779 68.7 751.2 70.2C723.3 71.7 695.7 78.3 667.8 77C640 75.7 612 66.3 584.2 61.7C556.3 57 528.7 57 500.8 57.3C473 57.7 445 58.3 417.2 58.7C389.3 59 361.7 59 333.8 60.3C306 61.7 278 64.3 250.2 63.5C222.3 62.7 194.7 58.3 166.8 59.7C139 61 111 68 83.2 70C55.3 72 27.7 69 13.8 67.5L0 66Z" fill="#ffe8ca"></path><path d="M0 82L13.8 83.3C27.7 84.7 55.3 87.3 83.2 88.5C111 89.7 139 89.3 166.8 88C194.7 86.7 222.3 84.3 250.2 85.7C278 87 306 92 333.8 92.7C361.7 93.3 389.3 89.7 417.2 88.8C445 88 473 90 500.8 90.2C528.7 90.3 556.3 88.7 584.2 87.8C612 87 640 87 667.8 86.3C695.7 85.7 723.3 84.3 751.2 85.8C779 87.3 807 91.7 834.8 92.5C862.7 93.3 890.3 90.7 918.2 88.8C946 87 974 86 1001.8 85.8C1029.7 85.7 1057.3 86.3 1085.2 86.3C1113 86.3 1141 85.7 1168.8 86.3C1196.7 87 1224.3 89 1252.2 89C1280 89 1308 87 1335.8 86.7C1363.7 86.3 1391.3 87.7 1419.2 88.2C1447 88.7 1475 88.3 1502.8 88.2C1530.7 88 1558.3 88 1586.2 86.3C1614 84.7 1642 81.3 1669.8 81C1697.7 80.7 1725.3 83.3 1753.2 85.5C1781 87.7 1809 89.3 1836.8 90.2C1864.7 91 1892.3 91 1906.2 91L1920 91L1920 87L1906.2 85.5C1892.3 84 1864.7 81 1836.8 79.2C1809 77.3 1781 76.7 1753.2 75.5C1725.3 74.3 1697.7 72.7 1669.8 73.7C1642 74.7 1614 78.3 1586.2 80.8C1558.3 83.3 1530.7 84.7 1502.8 83.8C1475 83 1447 80 1419.2 78.5C1391.3 77 1363.7 77 1335.8 79C1308 81 1280 85 1252.2 85.5C1224.3 86 1196.7 83 1168.8 81.8C1141 80.7 1113 81.3 1085.2 81C1057.3 80.7 1029.7 79.3 1001.8 78.2C974 77 946 76 918.2 78.7C890.3 81.3 862.7 87.7 834.8 86.8C807 86 779 78 751.2 76.5C723.3 75 695.7 80 667.8 82.5C640 85 612 85 584.2 84C556.3 83 528.7 81 500.8 79.8C473 78.7 445 78.3 417.2 79.5C389.3 80.7 361.7 83.3 333.8 81.8C306 80.3 278 74.7 250.2 73C222.3 71.3 194.7 73.7 166.8 75.3C139 77 111 78 83.2 77.8C55.3 77.7 27.7 76.3 13.8 75.7L0 75Z" fill="#fff0dc"></path><path d="M0 89L13.8 89.5C27.7 90 55.3 91 83.2 92C111 93 139 94 166.8 93.3C194.7 92.7 222.3 90.3 250.2 91.3C278 92.3 306 96.7 333.8 97.5C361.7 98.3 389.3 95.7 417.2 95.3C445 95 473 97 500.8 96.8C528.7 96.7 556.3 94.3 584.2 92.5C612 90.7 640 89.3 667.8 88.3C695.7 87.3 723.3 86.7 751.2 88.8C779 91 807 96 834.8 97.5C862.7 99 890.3 97 918.2 95.5C946 94 974 93 1001.8 92.3C1029.7 91.7 1057.3 91.3 1085.2 91.5C1113 91.7 1141 92.3 1168.8 92.8C1196.7 93.3 1224.3 93.7 1252.2 93.2C1280 92.7 1308 91.3 1335.8 91.5C1363.7 91.7 1391.3 93.3 1419.2 93.2C1447 93 1475 91 1502.8 89.8C1530.7 88.7 1558.3 88.3 1586.2 88.2C1614 88 1642 88 1669.8 88.2C1697.7 88.3 1725.3 88.7 1753.2 90C1781 91.3 1809 93.7 1836.8 94.2C1864.7 94.7 1892.3 93.3 1906.2 92.7L1920 92L1920 89L1906.2 89C1892.3 89 1864.7 89 1836.8 88.2C1809 87.3 1781 85.7 1753.2 83.5C1725.3 81.3 1697.7 78.7 1669.8 79C1642 79.3 1614 82.7 1586.2 84.3C1558.3 86 1530.7 86 1502.8 86.2C1475 86.3 1447 86.7 1419.2 86.2C1391.3 85.7 1363.7 84.3 1335.8 84.7C1308 85 1280 87 1252.2 87C1224.3 87 1196.7 85 1168.8 84.3C1141 83.7 1113 84.3 1085.2 84.3C1057.3 84.3 1029.7 83.7 1001.8 83.8C974 84 946 85 918.2 86.8C890.3 88.7 862.7 91.3 834.8 90.5C807 89.7 779 85.3 751.2 83.8C723.3 82.3 695.7 83.7 667.8 84.3C640 85 612 85 584.2 85.8C556.3 86.7 528.7 88.3 500.8 88.2C473 88 445 86 417.2 86.8C389.3 87.7 361.7 91.3 333.8 90.7C306 90 278 85 250.2 83.7C222.3 82.3 194.7 84.7 166.8 86C139 87.3 111 87.7 83.2 86.5C55.3 85.3 27.7 82.7 13.8 81.3L0 80Z" fill="#fff7ed"></path><path d="M0 101L13.8 101C27.7 101 55.3 101 83.2 101C111 101 139 101 166.8 101C194.7 101 222.3 101 250.2 101C278 101 306 101 333.8 101C361.7 101 389.3 101 417.2 101C445 101 473 101 500.8 101C528.7 101 556.3 101 584.2 101C612 101 640 101 667.8 101C695.7 101 723.3 101 751.2 101C779 101 807 101 834.8 101C862.7 101 890.3 101 918.2 101C946 101 974 101 1001.8 101C1029.7 101 1057.3 101 1085.2 101C1113 101 1141 101 1168.8 101C1196.7 101 1224.3 101 1252.2 101C1280 101 1308 101 1335.8 101C1363.7 101 1391.3 101 1419.2 101C1447 101 1475 101 1502.8 101C1530.7 101 1558.3 101 1586.2 101C1614 101 1642 101 1669.8 101C1697.7 101 1725.3 101 1753.2 101C1781 101 1809 101 1836.8 101C1864.7 101 1892.3 101 1906.2 101L1920 101L1920 90L1906.2 90.7C1892.3 91.3 1864.7 92.7 1836.8 92.2C1809 91.7 1781 89.3 1753.2 88C1725.3 86.7 1697.7 86.3 1669.8 86.2C1642 86 1614 86 1586.2 86.2C1558.3 86.3 1530.7 86.7 1502.8 87.8C1475 89 1447 91 1419.2 91.2C1391.3 91.3 1363.7 89.7 1335.8 89.5C1308 89.3 1280 90.7 1252.2 91.2C1224.3 91.7 1196.7 91.3 1168.8 90.8C1141 90.3 1113 89.7 1085.2 89.5C1057.3 89.3 1029.7 89.7 1001.8 90.3C974 91 946 92 918.2 93.5C890.3 95 862.7 97 834.8 95.5C807 94 779 89 751.2 86.8C723.3 84.7 695.7 85.3 667.8 86.3C640 87.3 612 88.7 584.2 90.5C556.3 92.3 528.7 94.7 500.8 94.8C473 95 445 93 417.2 93.3C389.3 93.7 361.7 96.3 333.8 95.5C306 94.7 278 90.3 250.2 89.3C222.3 88.3 194.7 90.7 166.8 91.3C139 92 111 91 83.2 90C55.3 89 27.7 88 13.8 87.5L0 87Z" fill="#ffffff"></path></svg>