<svg id="visual" viewBox="0 0 960 540" width="960" height="540" xmlns="http://www.w3.org/2000/svg" xmlns:xlink="http://www.w3.org/1999/xlink" version="1.1"><rect x="0" y="0" width="960" height="540" fill="#001122"></rect><path d="M0 285L107 285L107 333L213 333L213 252L320 252L320 289L427 289L427 302L533 302L533 295L640 295L640 262L747 262L747 250L853 250L853 294L960 294L960 296L960 0L960 0L853 0L853 0L747 0L747 0L640 0L640 0L533 0L533 0L427 0L427 0L320 0L320 0L213 0L213 0L107 0L107 0L0 0Z" fill="#6600ff"></path><path d="M0 254L107 254L107 211L213 211L213 218L320 218L320 207L427 207L427 226L533 226L533 257L640 257L640 192L747 192L747 217L853 217L853 197L960 197L960 181L960 0L960 0L853 0L853 0L747 0L747 0L640 0L640 0L533 0L533 0L427 0L427 0L320 0L320 0L213 0L213 0L107 0L107 0L0 0Z" fill="#6733fc"></path><path d="M0 113L107 113L107 166L213 166L213 150L320 150L320 170L427 170L427 178L533 178L533 178L640 178L640 117L747 117L747 123L853 123L853 155L960 155L960 181L960 0L960 0L853 0L853 0L747 0L747 0L640 0L640 0L533 0L533 0L427 0L427 0L320 0L320 0L213 0L213 0L107 0L107 0L0 0Z" fill="#6b4bf8"></path><path d="M0 77L107 77L107 55L213 55L213 46L320 46L320 88L427 88L427 82L533 82L533 80L640 80L640 78L747 78L747 72L853 72L853 38L960 38L960 80L960 0L960 0L853 0L853 0L747 0L747 0L640 0L640 0L533 0L533 0L427 0L427 0L320 0L320 0L213 0L213 0L107 0L107 0L0 0Z" fill="#715df2"></path></svg>